<svg width="67" height="66" viewBox="0 0 67 66" fill="none" xmlns="http://www.w3.org/2000/svg">
<circle cx="33.5" cy="33" r="33" fill="#111D4A"/>
<path d="M37.667 29.6666C37.667 28.3483 39.422 27.9983 39.887 29.2333C41.0137 32.2166 41.8337 34.89 41.8337 36.3333C41.8337 38.5434 40.9557 40.6631 39.3929 42.2259C37.8301 43.7887 35.7105 44.6666 33.5003 44.6666C31.2902 44.6666 29.1706 43.7887 27.6078 42.2259C26.045 40.6631 25.167 38.5434 25.167 36.3333C25.167 34.7833 26.1137 31.815 27.3703 28.5616C28.9953 24.3483 29.8087 22.2416 30.8137 22.1283C31.1337 22.0916 31.4853 22.1566 31.772 22.3066C32.667 22.7733 32.667 25.0716 32.667 29.6666C32.667 30.3297 32.9304 30.9656 33.3992 31.4344C33.8681 31.9032 34.504 32.1666 35.167 32.1666C35.83 32.1666 36.4659 31.9032 36.9348 31.4344C37.4036 30.9656 37.667 30.3297 37.667 29.6666Z" stroke="#FFF8F0"/>
<path d="M31.8336 44.6667L31.3953 43.5717C31.0223 42.6392 30.9033 41.6244 31.0506 40.631C31.1979 39.6375 31.6061 38.7009 32.2336 37.9167C32.3855 37.7266 32.5783 37.5732 32.7975 37.4678C33.0168 37.3624 33.257 37.3076 33.5003 37.3076C33.7436 37.3076 33.9838 37.3624 34.203 37.4678C34.4223 37.5732 34.615 37.7266 34.767 37.9167C36.0436 39.5134 36.3636 41.6734 35.6053 43.5717L35.167 44.6667" stroke="#FFF8F0"/>
</svg>
