<svg width="66" height="66" viewBox="0 0 66 66" fill="none" xmlns="http://www.w3.org/2000/svg">
<circle cx="33" cy="33" r="33" fill="#1E1E24"/>
<path d="M29.3945 28.75C30.2513 27.713 31.5484 27.05 33.0002 27.05C34.452 27.05 35.7491 27.713 36.6059 28.75C37.17 29.4339 37.528 30.2641 37.6381 31.1438C37.7483 32.0235 37.606 32.9163 37.2279 33.7182C36.8499 34.5201 36.2516 35.198 35.5029 35.6727C34.7542 36.1475 33.8859 36.3996 32.9993 36.3996C32.1128 36.3996 31.2445 36.1475 30.4958 35.6727C29.7471 35.198 29.1488 34.5201 28.7708 33.7182C28.3927 32.9163 28.2504 32.0235 28.3606 31.1438C28.4707 30.2641 28.8287 29.4339 29.3928 28.75M39.3735 31.725C39.3735 30.6506 39.1083 29.6374 38.6391 28.75H45.7502C46.4265 28.75 47.0751 29.0186 47.5533 29.4968C48.0315 29.975 48.3002 30.6236 48.3002 31.3V32.15C48.3002 34.8479 46.25 37.6104 42.6647 38.5828C42.2963 37.9209 41.7576 37.3696 41.1045 36.9858C40.4515 36.602 39.7077 36.3998 38.9502 36.4H37.3352C37.9796 35.8038 38.4935 35.0806 38.8446 34.276C39.1957 33.4714 39.3763 32.6028 39.3752 31.725M38.9502 38.1C39.2853 38.0991 39.6173 38.1644 39.9271 38.2922C40.2369 38.4201 40.5184 38.6079 40.7553 38.8448C40.9923 39.0818 41.1801 39.3633 41.3079 39.673C41.4357 39.9828 41.5011 40.3148 41.5002 40.65V41.5C41.5002 44.8507 38.3382 48.3 33.0002 48.3C27.6622 48.3 24.5002 44.8507 24.5002 41.5V40.65C24.4993 40.3148 24.5646 39.9828 24.6925 39.673C24.8203 39.3633 25.0081 39.0818 25.2451 38.8448C25.482 38.6079 25.7635 38.4201 26.0733 38.2922C26.3831 38.1644 26.7151 38.0991 27.0502 38.1H38.9502ZM17.7002 32.15C17.7002 34.8479 19.7504 37.6104 23.3357 38.5828C23.7041 37.9209 24.2428 37.3696 24.8959 36.9858C25.5489 36.602 26.2927 36.3998 27.0502 36.4H28.6652C28.0208 35.8038 27.5069 35.0806 27.1558 34.276C26.8047 33.4714 26.6241 32.6028 26.6252 31.725C26.6252 30.6506 26.8904 29.6374 27.3613 28.75H20.2502C19.5739 28.75 18.9253 29.0186 18.4471 29.4968C17.9689 29.975 17.7002 30.6236 17.7002 31.3V32.15ZM30.8752 22.375C30.8752 21.1351 30.3827 19.946 29.5059 19.0692C28.6292 18.1925 27.4401 17.7 26.2002 17.7C24.9603 17.7 23.7712 18.1925 22.8945 19.0692C22.0177 19.946 21.5252 21.1351 21.5252 22.375C21.5252 23.6148 22.0177 24.8039 22.8945 25.6807C23.7712 26.5574 24.9603 27.05 26.2002 27.05C27.4401 27.05 28.6292 26.5574 29.5059 25.6807C30.3827 24.8039 30.8752 23.6148 30.8752 22.375ZM44.4752 22.375C44.4752 21.1351 43.9827 19.946 43.1059 19.0692C42.2292 18.1925 41.0401 17.7 39.8002 17.7C38.5603 17.7 37.3712 18.1925 36.4945 19.0692C35.6177 19.946 35.1252 21.1351 35.1252 22.375C35.1252 23.6148 35.6177 24.8039 36.4945 25.6807C37.3712 26.5574 38.5603 27.05 39.8002 27.05C41.0401 27.05 42.2292 26.5574 43.1059 25.6807C43.9827 24.8039 44.4752 23.6148 44.4752 22.375Z" fill="#FFF8F0"/>
</svg>
