<svg width="67" height="66" viewBox="0 0 67 66" fill="none" xmlns="http://www.w3.org/2000/svg">
<circle cx="33.5" cy="33" r="33" fill="#92140C"/>
<path d="M42.1725 27.75H40.3115L35.7455 32.314C35.9027 32.7148 35.9172 33.1575 35.7864 33.5677C35.6557 33.9779 35.3876 34.3306 35.0274 34.5664C34.6672 34.8022 34.2368 34.9068 33.8085 34.8626C33.3803 34.8184 32.9803 34.6281 32.6758 34.3237C32.3714 34.0192 32.1811 33.6192 32.1369 33.191C32.0927 32.7627 32.1973 32.3323 32.4331 31.9721C32.6689 31.6119 33.0216 31.3438 33.4318 31.2131C33.842 31.0823 34.2847 31.0968 34.6855 31.254L39.2505 26.689V24.828C39.2506 24.579 39.3495 24.3402 39.5255 24.164L41.2555 22.434C41.2875 22.4018 41.3277 22.3789 41.3717 22.3678C41.4158 22.3567 41.462 22.3578 41.5055 22.371C41.5945 22.397 41.6605 22.471 41.6785 22.562L42.1385 24.863L44.4385 25.323C44.5285 25.341 44.6025 25.407 44.6285 25.496C44.6416 25.5393 44.6428 25.5852 44.6319 25.6291C44.6209 25.6729 44.5983 25.713 44.5665 25.745L42.8355 27.475C42.6595 27.6508 42.4211 27.7497 42.1725 27.75Z" fill="#FFF8F0"/>
<path d="M24.625 33C24.625 35.4864 25.6127 37.871 27.3709 39.6291C29.129 41.3873 31.5136 42.375 34 42.375C35.2311 42.375 36.4502 42.1325 37.5877 41.6614C38.7251 41.1902 39.7586 40.4997 40.6291 39.6291C41.4997 38.7586 42.1902 37.7251 42.6614 36.5877C43.1325 35.4502 43.375 34.2311 43.375 33C43.375 32.102 43.249 31.234 43.014 30.413C42.9673 30.2245 42.9955 30.0252 43.0928 29.8571C43.19 29.689 43.3487 29.5651 43.5353 29.5116C43.722 29.4581 43.9222 29.4791 44.0937 29.5702C44.2653 29.6613 44.3948 29.8154 44.455 30C44.729 30.954 44.875 31.96 44.875 33C44.875 39.006 40.006 43.875 34 43.875C27.994 43.875 23.125 39.006 23.125 33C23.125 26.994 27.994 22.125 34 22.125C35.015 22.124 36.024 22.265 37 22.544C37.0952 22.5707 37.1841 22.6159 37.2617 22.6771C37.3393 22.7383 37.4041 22.8142 37.4523 22.9005C37.5005 22.9868 37.5311 23.0818 37.5425 23.18C37.5538 23.2782 37.5457 23.3776 37.5184 23.4726C37.4912 23.5677 37.4455 23.6564 37.3839 23.7336C37.3223 23.8109 37.246 23.8753 37.1595 23.923C37.0729 23.9707 36.9778 24.0008 36.8795 24.0116C36.7813 24.0224 36.6819 24.0137 36.587 23.986C35.7457 23.7459 34.8749 23.6244 34 23.625C31.5136 23.625 29.129 24.6127 27.3709 26.3709C25.6127 28.129 24.625 30.5136 24.625 33Z" fill="#FFF8F0"/>
<path d="M29.1247 33C29.1275 33.6624 29.2653 34.3172 29.5296 34.9245C29.7939 35.5318 30.1792 36.0788 30.662 36.5323C31.1448 36.9857 31.7149 37.336 32.3376 37.5617C32.9603 37.7874 33.6224 37.8839 34.2836 37.8452C34.9448 37.8064 35.5912 37.6334 36.1833 37.3365C36.7753 37.0396 37.3007 36.6252 37.7273 36.1186C38.1538 35.6119 38.4727 35.0236 38.6643 34.3896C38.8559 33.7556 38.9163 33.0892 38.8417 32.431C38.8207 32.2977 38.8362 32.1613 38.8864 32.036C38.9367 31.9108 39.0199 31.8015 39.1272 31.7197C39.2345 31.6379 39.362 31.5867 39.496 31.5714C39.6301 31.5562 39.7658 31.5775 39.8887 31.633C40.1397 31.745 40.3087 31.984 40.3307 32.258C40.486 33.5733 40.2277 34.9042 39.5916 36.0659C38.9556 37.2275 37.9734 38.1622 36.7817 38.7399C35.59 39.3176 34.2479 39.5097 32.9419 39.2895C31.636 39.0692 30.4311 38.4476 29.4947 37.511C28.5586 36.5755 27.9369 35.3718 27.7157 34.0669C27.4945 32.7621 27.6848 31.4207 28.2603 30.2289C28.8357 29.0371 29.7678 28.0539 30.9272 27.4156C32.0866 26.7774 33.4159 26.5158 34.7307 26.667C34.8301 26.6763 34.9267 26.7052 35.0147 26.7523C35.1028 26.7993 35.1806 26.8634 35.2435 26.9409C35.3065 27.0183 35.3533 27.1076 35.3813 27.2034C35.4093 27.2992 35.4179 27.3997 35.4066 27.4988C35.3953 27.598 35.3643 27.6939 35.3154 27.781C35.2666 27.868 35.2008 27.9444 35.122 28.0057C35.0432 28.067 34.953 28.112 34.8566 28.138C34.7603 28.164 34.6597 28.1704 34.5607 28.157C33.8778 28.0781 33.1858 28.1444 32.5303 28.3518C31.8748 28.5591 31.2705 28.9027 30.7572 29.3601C30.2438 29.8174 29.833 30.3781 29.5517 31.0055C29.2703 31.6328 29.1248 32.3125 29.1247 33Z" fill="#FFF8F0"/>
</svg>
