<svg width="38" height="38" viewBox="0 0 38 38" fill="none" xmlns="http://www.w3.org/2000/svg">
<circle cx="19" cy="19" r="19" fill="#FFF8F0"/>
<path d="M11 14C11 13.7348 11.1054 13.4804 11.2929 13.2929C11.4804 13.1054 11.7348 13 12 13H26C26.2652 13 26.5196 13.1054 26.7071 13.2929C26.8946 13.4804 27 13.7348 27 14C27 14.2652 26.8946 14.5196 26.7071 14.7071C26.5196 14.8946 26.2652 15 26 15H12C11.7348 15 11.4804 14.8946 11.2929 14.7071C11.1054 14.5196 11 14.2652 11 14ZM11 19C11 18.7348 11.1054 18.4804 11.2929 18.2929C11.4804 18.1054 11.7348 18 12 18H26C26.2652 18 26.5196 18.1054 26.7071 18.2929C26.8946 18.4804 27 18.7348 27 19C27 19.2652 26.8946 19.5196 26.7071 19.7071C26.5196 19.8946 26.2652 20 26 20H12C11.7348 20 11.4804 19.8946 11.2929 19.7071C11.1054 19.5196 11 19.2652 11 19ZM11 24C11 23.7348 11.1054 23.4804 11.2929 23.2929C11.4804 23.1054 11.7348 23 12 23H26C26.2652 23 26.5196 23.1054 26.7071 23.2929C26.8946 23.4804 27 23.7348 27 24C27 24.2652 26.8946 24.5196 26.7071 24.7071C26.5196 24.8946 26.2652 25 26 25H12C11.7348 25 11.4804 24.8946 11.2929 24.7071C11.1054 24.5196 11 24.2652 11 24Z" fill="#92140C"/>
</svg>
