<svg width="66" height="66" viewBox="0 0 66 66" fill="none" xmlns="http://www.w3.org/2000/svg">
<circle cx="33" cy="33" r="33" fill="#92140C"/>
<path d="M47.875 29.5469C47.875 38.8438 34.0904 46.3689 33.5034 46.6797C33.3486 46.7629 33.1757 46.8065 33 46.8065C32.8243 46.8065 32.6514 46.7629 32.4966 46.6797C31.9096 46.3689 18.125 38.8438 18.125 29.5469C18.1275 27.3637 18.9958 25.2707 20.5395 23.727C22.0832 22.1833 24.1762 21.315 26.3594 21.3125C29.102 21.3125 31.5032 22.4919 33 24.4854C34.4968 22.4919 36.898 21.3125 39.6406 21.3125C41.8238 21.315 43.9168 22.1833 45.4605 23.727C47.0042 25.2707 47.8725 27.3637 47.875 29.5469Z" fill="#FFF8F0"/>
</svg>
