<svg width="60" height="60" viewBox="0 0 60 60" fill="none" xmlns="http://www.w3.org/2000/svg">
<circle cx="30" cy="30" r="30" fill="#92140C"/>
<path d="M30.3258 20.9343C30.2385 20.8509 30.1225 20.8043 30.0018 20.8043C29.881 20.8043 29.765 20.8509 29.6777 20.9343L18.8906 31.2392C18.8448 31.283 18.8084 31.3357 18.7835 31.394C18.7586 31.4523 18.7458 31.5151 18.7459 31.5785L18.7441 41.25C18.7441 41.7472 18.9417 42.2242 19.2933 42.5758C19.6449 42.9274 20.1219 43.125 20.6191 43.125H26.25C26.4986 43.125 26.7371 43.0262 26.9129 42.8504C27.0887 42.6746 27.1875 42.4361 27.1875 42.1875V34.2187C27.1875 34.0944 27.2369 33.9752 27.3248 33.8873C27.4127 33.7994 27.5319 33.75 27.6563 33.75H32.3438C32.4681 33.75 32.5873 33.7994 32.6752 33.8873C32.7631 33.9752 32.8125 34.0944 32.8125 34.2187V42.1875C32.8125 42.4361 32.9113 42.6746 33.0871 42.8504C33.2629 43.0262 33.5014 43.125 33.75 43.125H39.3785C39.8758 43.125 40.3527 42.9274 40.7043 42.5758C41.056 42.2242 41.2535 41.7472 41.2535 41.25V31.5785C41.2536 31.5151 41.2408 31.4523 41.2159 31.394C41.191 31.3357 41.1546 31.283 41.1088 31.2392L30.3258 20.9343Z" fill="#FFF8F0"/>
<path d="M43.7643 29.3057L39.3815 25.1127V18.75C39.3815 18.5014 39.2827 18.2629 39.1069 18.0871C38.9311 17.9113 38.6926 17.8125 38.444 17.8125H35.6315C35.3828 17.8125 35.1444 17.9113 34.9686 18.0871C34.7927 18.2629 34.694 18.5014 34.694 18.75V20.625L31.3002 17.3801C30.9826 17.059 30.5104 16.875 30 16.875C29.4914 16.875 29.0203 17.059 28.7028 17.3807L16.2399 29.3045C15.8754 29.6561 15.8297 30.2344 16.1614 30.6152C16.2446 30.7114 16.3466 30.7896 16.4611 30.845C16.5755 30.9005 16.7001 30.9321 16.8271 30.9379C16.9542 30.9437 17.0811 30.9236 17.2001 30.8788C17.3192 30.834 17.4278 30.7655 17.5196 30.6773L29.6778 19.0594C29.765 18.9759 29.8811 18.9294 30.0018 18.9294C30.1225 18.9294 30.2386 18.9759 30.3258 19.0594L42.4852 30.6773C42.6643 30.8491 42.9042 30.9429 43.1523 30.938C43.4004 30.9332 43.6365 30.8302 43.8088 30.6516C44.1686 30.2789 44.1387 29.6637 43.7643 29.3057Z" fill="#FFF8F0"/>
</svg>
