<svg width="696" height="696" viewBox="0 0 696 696" fill="none" xmlns="http://www.w3.org/2000/svg">
<path d="M696 532.301H0V532.649H696V532.301Z" fill="#E6E6E6"/>
<path d="M620.248 541.251H587.884V541.599H620.248V541.251Z" fill="#E6E6E6"/>
<path d="M502.512 548.81H348.793V549.158H502.512V548.81Z" fill="#E6E6E6"/>
<path d="M283.035 548.991H267.96V549.339H283.035V548.991Z" fill="#E6E6E6"/>
<path d="M160.86 544.815H108.576V545.163H160.86V544.815Z" fill="#E6E6E6"/>
<path d="M574.409 541.251H543.812V541.599H574.409V541.251Z" fill="#E6E6E6"/>
<path d="M97.217 544.815H71.8965V545.163H97.217V544.815Z" fill="#E6E6E6"/>
<path d="M329.904 470.218H61.1229C59.0173 470.214 56.9992 469.375 55.5116 467.885C54.024 466.395 53.1885 464.375 53.1885 462.269V84.4388C53.2068 82.3452 54.0504 80.3435 55.536 78.8683C57.0216 77.3931 59.0293 76.5636 61.1229 76.5601H329.904C332.012 76.5601 334.034 77.3975 335.525 78.8881C337.015 80.3787 337.853 82.4004 337.853 84.5084V462.269C337.853 464.377 337.015 466.399 335.525 467.89C334.034 469.38 332.012 470.218 329.904 470.218ZM61.1229 76.8385C59.1096 76.8421 57.18 77.6445 55.7576 79.0695C54.3353 80.4944 53.5365 82.4255 53.5365 84.4388V462.269C53.5365 464.283 54.3353 466.214 55.7576 467.639C57.18 469.064 59.1096 469.866 61.1229 469.87H329.904C331.919 469.866 333.85 469.064 335.274 467.64C336.699 466.215 337.501 464.284 337.505 462.269V84.4388C337.501 82.4242 336.699 80.4931 335.274 79.0686C333.85 77.6441 331.919 76.8421 329.904 76.8385H61.1229Z" fill="#E6E6E6"/>
<path d="M631.007 470.218H362.212C360.105 470.214 358.086 469.375 356.596 467.886C355.106 466.396 354.267 464.376 354.264 462.269V84.4388C354.286 82.344 355.132 80.3422 356.62 78.8674C358.108 77.3926 360.117 76.5636 362.212 76.5601H631.007C633.098 76.5673 635.102 77.3984 636.585 78.8732C638.068 80.348 638.909 82.3477 638.928 84.4388V462.269C638.928 464.373 638.094 466.39 636.609 467.88C635.125 469.37 633.11 470.21 631.007 470.218ZM362.212 76.8385C360.197 76.8421 358.266 77.6441 356.842 79.0686C355.417 80.4931 354.615 82.4242 354.612 84.4388V462.269C354.615 464.284 355.417 466.215 356.842 467.64C358.266 469.064 360.197 469.866 362.212 469.87H631.007C633.022 469.866 634.953 469.064 636.377 467.64C637.802 466.215 638.604 464.284 638.607 462.269V84.4388C638.604 82.4242 637.802 80.4931 636.377 79.0686C634.953 77.6441 633.022 76.8421 631.007 76.8385H362.212Z" fill="#E6E6E6"/>
<path d="M450.409 285.527H555.603V102.382H450.409V285.527Z" fill="#E6E6E6"/>
<path d="M444.73 285.527H549.924V102.382H444.73V285.527Z" fill="#F5F5F5"/>
<path d="M539.706 276.938V110.984H454.919V276.938H539.706Z" fill="#FAFAFA"/>
<path d="M459.221 276.938V110.984H454.919V276.938H459.221Z" fill="#E6E6E6"/>
<path d="M448.948 236.877H545.706V225.337H448.948V236.877Z" fill="#F5F5F5"/>
<path d="M271.635 285.527H376.828V102.382H271.635V285.527Z" fill="#E6E6E6"/>
<path d="M265.956 285.527H371.149V102.382H265.956V285.527Z" fill="#F5F5F5"/>
<path d="M360.945 276.938V110.984H276.159V276.938H360.945Z" fill="#FAFAFA"/>
<path d="M280.446 276.925V110.97H276.145V276.925H280.446Z" fill="#E6E6E6"/>
<path d="M270.174 236.877H366.932V225.337H270.174V236.877Z" fill="#F5F5F5"/>
<path d="M92.874 285.527H198.067L198.067 102.382H92.874L92.874 285.527Z" fill="#E6E6E6"/>
<path d="M87.1952 285.527H192.389L192.389 102.382H87.1952L87.1952 285.527Z" fill="#F5F5F5"/>
<path d="M182.171 276.925V110.97H97.3842L97.3842 276.925H182.171Z" fill="#FAFAFA"/>
<path d="M101.686 276.938L101.686 110.984H97.3843L97.3843 276.938H101.686Z" fill="#E6E6E6"/>
<path d="M91.413 236.877H188.171V225.337H91.413V236.877Z" fill="#F5F5F5"/>
<path d="M194.88 398.836C175.907 401.453 164.173 360.222 206.016 325.31C203.831 365.72 227.982 394.27 194.88 398.836Z" fill="#E6E6E6"/>
<path d="M180.96 452.832C153.454 433.552 172.274 366.193 257.395 371.079C220.59 420.662 228.928 486.434 180.96 452.832Z" fill="#E0E0E0"/>
<path d="M190.704 452.4C208.981 432.717 182.964 383.176 117.192 401.272C154.303 433.845 158.813 486.699 190.704 452.4Z" fill="#E0E0E0"/>
<path d="M167.235 423.669C160.915 415.971 153.454 407.313 155.264 398.154C157.073 388.994 161.597 382.188 158.048 372.444C153.733 360.751 154.568 346.803 161.862 347.972C169.156 349.141 177.327 357.716 177.174 369.005C177.049 379.974 184.134 383.482 190.955 389.315C197.775 395.147 200.184 403.68 201.395 412.032C203.51 425.298 220.702 422.792 225.267 434.304C229.986 445.44 220.576 460.265 205.529 463.675C190.481 467.086 179.763 469.243 169.504 457.467C159.078 445.064 176.589 434.694 167.235 423.669Z" fill="#F5F5F5"/>
<path d="M219.003 532.301H162.474L158.215 455.295H223.263L219.003 532.301Z" fill="#EBEBEB"/>
<path d="M227.481 453.722H153.997V462.019H227.481V453.722Z" fill="#EBEBEB"/>
<path d="M552.262 521.847H590.291V356.937H552.262V521.847Z" fill="#EBEBEB"/>
<path d="M254.249 532.301H582.983V521.847H254.249V532.301Z" fill="#EBEBEB"/>
<path d="M552.262 356.937H246.955V521.847H552.262V356.937Z" fill="#F5F5F5"/>
<path d="M537.311 377.232H261.904V431.325H537.311V377.232Z" fill="#EBEBEB"/>
<path d="M537.311 447.458H261.904V501.552H537.311V447.458Z" fill="#EBEBEB"/>
<path d="M313.938 407.981H485.279C486.26 407.978 487.2 407.586 487.894 406.893C488.587 406.199 488.978 405.26 488.982 404.279C488.982 403.295 488.592 402.352 487.898 401.656C487.204 400.959 486.263 400.566 485.279 400.562H313.938C312.955 400.566 312.013 400.959 311.319 401.656C310.625 402.352 310.235 403.295 310.235 404.279C310.239 405.26 310.63 406.199 311.324 406.893C312.018 407.586 312.957 407.978 313.938 407.981Z" fill="#F5F5F5"/>
<path d="M313.938 478.208H485.279C486.26 478.204 487.2 477.813 487.894 477.119C488.587 476.426 488.978 475.486 488.982 474.505C488.978 473.524 488.587 472.584 487.894 471.891C487.2 471.197 486.26 470.806 485.279 470.802H313.938C312.957 470.806 312.018 471.197 311.324 471.891C310.63 472.584 310.239 473.524 310.235 474.505C310.239 475.486 310.63 476.426 311.324 477.119C312.018 477.813 312.957 478.204 313.938 478.208Z" fill="#F5F5F5"/>
<path d="M467.977 332.869C467.977 332.869 511.546 374.156 537.41 332.702C537.41 332.702 530.533 319.381 523.281 318.239C516.028 317.098 515.736 329.765 509.361 325.853C502.985 321.942 495.538 308.565 491.474 315.706C487.409 322.847 481.827 312.671 475.744 312.086C469.661 311.502 467.977 332.869 467.977 332.869Z" fill="#F5F5F5"/>
<path d="M540.18 330.015C540.18 330.015 539.233 356.937 502.512 356.937C465.791 356.937 464.845 330.015 464.845 330.015H540.18Z" fill="#EBEBEB"/>
<path d="M354.417 315.984H375.562V356.937H313.479C313.479 346.078 317.791 335.663 325.468 327.984C333.145 320.304 343.558 315.988 354.417 315.984Z" fill="#F5F5F5"/>
<path d="M395.063 315.984H375.562V356.937H395.063V315.984Z" fill="#E6E6E6"/>
<path d="M348 595.164C497.059 595.164 617.895 588.109 617.895 579.406C617.895 570.703 497.059 563.649 348 563.649C198.942 563.649 78.1055 570.703 78.1055 579.406C78.1055 588.109 198.942 595.164 348 595.164Z" fill="#F5F5F5"/>
<path d="M303.456 275.282L302.538 276.674C302.259 277.078 301.967 277.44 301.689 277.815C301.118 278.567 300.519 279.207 299.921 279.973C298.71 281.365 297.485 282.757 296.176 283.982C293.56 286.496 290.769 288.822 287.824 290.942C284.883 293.061 281.789 294.96 278.568 296.621C276.939 297.415 275.324 298.236 273.64 298.904L271.12 299.906L270.41 300.171C270.021 300.296 269.659 300.435 269.227 300.533C268.385 300.743 267.52 300.841 266.652 300.825C264.998 300.814 263.371 300.408 261.905 299.642C260.727 299.026 259.644 298.243 258.69 297.317C257.179 295.827 255.873 294.142 254.806 292.306C252.983 289.128 251.495 285.769 250.366 282.284C248.176 275.713 246.61 268.95 245.688 262.086L251.507 260.805C252.565 263.854 253.651 267 254.848 270.034C256.045 273.069 257.242 276.089 258.634 278.957C259.901 281.725 261.41 284.375 263.144 286.877C263.833 287.915 264.662 288.852 265.608 289.661C265.88 289.884 266.185 290.063 266.513 290.19C266.708 290.19 266.694 290.19 266.596 290.19H266.499L266.958 289.968L269.032 288.965C270.424 288.297 271.747 287.573 273.083 286.766C275.719 285.187 278.266 283.462 280.711 281.602C283.124 279.705 285.416 277.66 287.574 275.477C288.66 274.419 289.69 273.291 290.678 272.15C291.165 271.579 291.652 271.009 292.07 270.438L292.738 269.589L293.281 268.865L303.456 275.282Z" fill="#B97964"/>
<path d="M286.599 274.683L293.656 291.61L288.548 294.798L280.613 279.444L286.599 274.683Z" fill="#263238"/>
<path d="M306.574 260.429C295.062 260.276 283.369 274.85 283.077 275.212L292.181 296.621C292.181 296.621 312.434 280.182 313.451 273.751C314.508 267.055 313.868 260.527 306.574 260.429Z" fill="#92140C"/>
<path opacity="0.3" d="M306.574 260.429C295.062 260.276 283.369 274.85 283.077 275.212L292.181 296.621C292.181 296.621 312.434 280.182 313.451 273.751C314.508 267.055 313.868 260.527 306.574 260.429Z" fill="black"/>
<path d="M250.56 258.592L242.598 252.397L240.983 264.591C240.983 264.591 248.723 267.626 252.843 264.995L252.732 262.768C252.69 261.957 252.475 261.164 252.1 260.444C251.726 259.723 251.2 259.092 250.56 258.592Z" fill="#B97964"/>
<path d="M231.991 251.785L232.492 261.042L241.025 264.591L242.64 252.398L231.991 251.785Z" fill="#B97964"/>
<path d="M406.464 257.604L418.77 254.527L410.167 245.744C410.167 245.744 402.191 249.001 404.14 255.961L406.464 257.604Z" fill="#B97964"/>
<path d="M424.881 252.342L423.865 242.681L410.098 245.744L418.7 254.527L424.881 252.342Z" fill="#B97964"/>
<path d="M366.333 567.198L354.877 568.298L345.313 541.265L356.77 540.152L366.333 567.198Z" fill="#B97964"/>
<path d="M488.969 510.363L480.533 518.548L458.846 501.621L467.295 493.436L488.969 510.363Z" fill="#B97964"/>
<path d="M478.096 516.961L484.583 505.449C484.692 505.251 484.87 505.1 485.082 505.023C485.295 504.946 485.528 504.949 485.738 505.032L495.594 508.846C495.837 508.952 496.056 509.108 496.236 509.304C496.415 509.5 496.551 509.731 496.635 509.983C496.719 510.235 496.749 510.502 496.723 510.767C496.697 511.031 496.616 511.287 496.485 511.518C494.16 515.499 492.838 517.295 489.984 522.362C488.23 525.48 484.806 532.621 482.384 536.922C479.962 541.224 475.577 539.052 476.203 537.048C478.987 528.041 478.514 523.016 477.762 519.035C477.624 518.326 477.743 517.591 478.096 516.961Z" fill="#263238"/>
<path d="M352.594 564.79H366.513C366.763 564.796 367.005 564.881 367.203 565.034C367.401 565.187 367.545 565.399 367.613 565.639L370.648 576.678C370.725 576.939 370.739 577.214 370.689 577.481C370.639 577.749 370.527 578.001 370.361 578.216C370.196 578.432 369.982 578.606 369.736 578.723C369.491 578.84 369.221 578.898 368.949 578.891C364.064 578.808 361.683 578.515 355.545 578.515C351.772 578.515 339.481 578.919 334.261 578.919C329.041 578.919 328.094 573.755 330.21 573.351C339.676 571.249 347.666 568.368 350.575 565.611C351.114 565.083 351.839 564.788 352.594 564.79Z" fill="#263238"/>
<path d="M345.328 541.265L350.242 555.213H362.102L356.784 540.152L345.328 541.265Z" fill="#A76755"/>
<path d="M467.309 493.436L458.859 501.635L470.037 510.349L478.487 502.164L467.309 493.436Z" fill="#A76755"/>
<path d="M295.369 264.146C295.369 264.146 290.636 267.751 322.527 329.988L367.99 315.302C361.252 297.053 357.55 285.652 354.07 244.825C347.326 245.571 340.646 246.804 334.081 248.514C327.06 250.281 320.164 252.508 313.437 255.182C304.751 258.912 295.369 264.146 295.369 264.146Z" fill="#92140C"/>
<path opacity="0.3" d="M295.369 264.146C295.369 264.146 290.636 267.751 322.527 329.988L367.99 315.302C361.252 297.053 357.55 285.652 354.07 244.825C347.326 245.571 340.646 246.804 334.081 248.514C327.06 250.281 320.164 252.508 313.437 255.182C304.751 258.912 295.369 264.146 295.369 264.146Z" fill="black"/>
<path d="M324.462 225.922C325.297 232.993 327.928 245.577 334.011 248.514C334.011 248.514 334.359 255.836 322.026 259.817C308.454 264.202 313.368 255.181 313.368 255.181C320.202 251.005 318.226 245.577 315.275 240.844L324.462 225.922Z" fill="#B97964"/>
<path d="M301.646 260.777C305.001 259.037 309.274 256.921 313.367 255.209C320.103 252.486 327.025 250.249 334.08 248.514C338.047 247.428 342.056 246.621 345.439 246.05C345.759 246.996 344.798 249.446 342.446 252.829C334.999 259.009 319.116 267.041 307.409 266.749C302.287 264.842 301.006 262.824 301.646 260.777Z" fill="#B97964"/>
<path d="M342.432 252.829C337.376 259.607 331.332 265.589 324.503 270.577C318.688 269.869 312.958 268.587 307.396 266.749C319.047 267.041 334.929 259.009 342.432 252.829Z" fill="#263238"/>
<path d="M320.717 232.005L315.274 240.816C315.985 241.914 316.595 243.074 317.098 244.282C319.798 242.96 323.237 239.048 322.582 235.93C322.194 234.523 321.563 233.194 320.717 232.005Z" fill="#A76755"/>
<path d="M327.218 212.865C327.914 224.516 328.47 229.43 323.348 236.083C315.65 246.078 301.187 244.435 297.011 233.188C293.267 223.096 292.752 205.738 303.512 199.78C305.876 198.451 308.541 197.749 311.253 197.738C313.965 197.728 316.634 198.41 319.009 199.721C321.383 201.031 323.383 202.927 324.82 205.227C326.256 207.527 327.082 210.156 327.218 212.865Z" fill="#B97964"/>
<path d="M350.229 191.984C352.861 180.409 345.611 168.893 334.037 166.261C322.462 163.629 310.946 170.879 308.314 182.453C305.682 194.028 312.932 205.544 324.506 208.176C336.081 210.808 347.597 203.558 350.229 191.984Z" fill="#263238"/>
<path d="M323.904 196.55C328.331 199.474 330.53 203.956 328.818 206.559C327.106 209.162 322.123 208.911 317.682 205.988C313.242 203.065 311.056 198.583 312.768 195.98C314.481 193.377 319.464 193.627 323.904 196.55Z" fill="#92140C"/>
<path opacity="0.6" d="M323.904 196.55C328.331 199.474 330.53 203.956 328.818 206.559C327.106 209.162 322.123 208.911 317.682 205.988C313.242 203.065 311.056 198.583 312.768 195.98C314.481 193.377 319.464 193.627 323.904 196.55Z" fill="#FAFAFA"/>
<path d="M321.552 220.813C322.707 218.14 318.684 210.206 319.547 207.241C317.237 205.083 293.809 212.712 295.702 207.144C297.512 201.798 303.219 194.713 316.248 197.678C330.168 200.852 331.379 212.893 329.82 216.734C328.261 220.576 326.048 224.571 326.048 224.571L321.552 220.813Z" fill="#263238"/>
<path d="M330.281 223.082C330.31 225.337 329.45 227.512 327.886 229.137C325.784 231.267 323.251 229.736 322.597 226.98C321.998 224.502 322.388 220.395 325.088 219.31C325.684 219.078 326.328 218.999 326.961 219.081C327.595 219.163 328.198 219.402 328.715 219.778C329.231 220.153 329.646 220.653 329.919 221.23C330.193 221.807 330.317 222.444 330.281 223.082Z" fill="#B97964"/>
<path d="M322.526 329.988C322.526 329.988 301.451 432.773 313.2 466.668C325.422 501.927 345.313 551.149 345.313 551.149L363.897 550.091C363.897 550.091 348.585 487.896 344.812 459.806C339.648 421.08 361.767 317.376 361.767 317.376L322.526 329.988Z" fill="#92140C"/>
<path opacity="0.6" d="M322.526 329.988C322.526 329.988 301.451 432.773 313.2 466.668C325.422 501.927 345.313 551.149 345.313 551.149L363.897 550.091C363.897 550.091 348.585 487.896 344.812 459.806C339.648 421.08 361.767 317.376 361.767 317.376L322.526 329.988Z" fill="#FAFAFA"/>
<path d="M365.359 550.536L343.853 551.775L340.4 543.312L364.12 540.848L365.359 550.536Z" fill="#92140C"/>
<path opacity="0.2" d="M365.359 550.536L343.853 551.775L340.4 543.312L364.12 540.848L365.359 550.536Z" fill="black"/>
<path d="M344.813 337.894C341.583 349.838 344.284 367.739 350.381 380.294C351.87 370.55 353.457 361.113 354.96 352.663C351.828 346.608 348.376 341.235 344.813 337.894Z" fill="#92140C"/>
<path opacity="0.4" d="M344.813 337.894C341.583 349.838 344.284 367.739 350.381 380.294C351.87 370.55 353.457 361.113 354.96 352.663C351.828 346.608 348.376 341.235 344.813 337.894Z" fill="#FAFAFA"/>
<path d="M334.525 326.104C334.525 326.104 365.818 400.896 386.544 441.96C403.248 475.173 465.234 509.931 465.234 509.931L476.37 498.127C476.37 498.127 430.044 456.994 418.491 434.471C381.519 362.379 389.12 330.892 368.017 315.302L334.525 326.104Z" fill="#92140C"/>
<path opacity="0.6" d="M334.525 326.104C334.525 326.104 365.818 400.896 386.544 441.96C403.248 475.173 465.234 509.931 465.234 509.931L476.37 498.127C476.37 498.127 430.044 456.994 418.491 434.471C381.519 362.379 389.12 330.892 368.017 315.302L334.525 326.104Z" fill="#FAFAFA"/>
<path d="M478.445 496.443L463.133 512.715L453.444 507.621L471.081 489.636L478.445 496.443Z" fill="#92140C"/>
<path opacity="0.2" d="M478.445 496.443L463.133 512.715L453.444 507.621L471.081 489.636L478.445 496.443Z" fill="black"/>
<path d="M367.808 312.421L371.163 315.831C371.428 316.095 371.163 316.541 370.634 316.708L322.958 332.02C322.541 332.159 322.137 332.02 322.025 331.811L320.313 327.886C320.188 327.607 320.466 327.259 320.912 327.106L366.945 312.253C367.091 312.204 367.248 312.194 367.399 312.223C367.55 312.252 367.691 312.32 367.808 312.421Z" fill="#263238"/>
<path d="M363.312 319.561L364.537 319.172C364.787 319.088 364.927 318.893 364.871 318.754L362.588 313.645C362.588 313.506 362.254 313.451 362.017 313.52L360.778 313.924C360.542 313.924 360.389 314.188 360.458 314.341L362.741 319.436C362.783 319.589 363.033 319.645 363.312 319.561Z" fill="#92140C"/>
<path opacity="0.6" d="M363.312 319.561L364.537 319.172C364.787 319.088 364.927 318.893 364.871 318.754L362.588 313.645C362.588 313.506 362.254 313.451 362.017 313.52L360.778 313.924C360.542 313.924 360.389 314.188 360.458 314.341L362.741 319.436C362.783 319.589 363.033 319.645 363.312 319.561Z" fill="#FAFAFA"/>
<path d="M326.564 331.421L327.803 331.018C328.039 330.934 328.192 330.753 328.123 330.6L325.84 325.505C325.77 325.352 325.52 325.297 325.269 325.38L324.03 325.77C323.794 325.853 323.641 326.034 323.71 326.187L325.993 331.282C326.063 331.435 326.313 331.491 326.564 331.421Z" fill="#92140C"/>
<path opacity="0.6" d="M326.564 331.421L327.803 331.018C328.039 330.934 328.192 330.753 328.123 330.6L325.84 325.505C325.77 325.352 325.52 325.297 325.269 325.38L324.03 325.77C323.794 325.853 323.641 326.034 323.71 326.187L325.993 331.282C326.063 331.435 326.313 331.491 326.564 331.421Z" fill="#FAFAFA"/>
<path d="M344.924 325.491L346.149 325.088C346.4 325.088 346.553 324.823 346.483 324.67L344.2 319.575C344.131 319.422 343.866 319.367 343.63 319.45L342.391 319.854C342.154 319.923 342.001 320.118 342.071 320.258L344.353 325.366C344.422 325.446 344.515 325.501 344.618 325.524C344.721 325.546 344.828 325.535 344.924 325.491Z" fill="#92140C"/>
<path opacity="0.6" d="M344.924 325.491L346.149 325.088C346.4 325.088 346.553 324.823 346.483 324.67L344.2 319.575C344.131 319.422 343.866 319.367 343.63 319.45L342.391 319.854C342.154 319.923 342.001 320.118 342.071 320.258L344.353 325.366C344.422 325.446 344.515 325.501 344.618 325.524C344.721 325.546 344.828 325.535 344.924 325.491Z" fill="#FAFAFA"/>
<path d="M310.068 218.238C310.179 219.17 309.776 220.006 309.163 220.075C308.551 220.145 307.952 219.449 307.841 218.502C307.729 217.556 308.133 216.734 308.746 216.665C309.358 216.595 309.957 217.291 310.068 218.238Z" fill="#263238"/>
<path d="M299.42 219.532C299.545 220.479 299.127 221.3 298.515 221.37C297.902 221.439 297.304 220.743 297.192 219.811C297.081 218.878 297.485 218.043 298.097 217.959C298.71 217.876 299.28 218.544 299.42 219.532Z" fill="#263238"/>
<path d="M298.376 217.987L296.037 217.611C296.037 217.611 297.415 219.24 298.376 217.987Z" fill="#263238"/>
<path d="M302.44 220.813C301.859 223.061 300.974 225.22 299.81 227.23C300.334 227.51 300.912 227.674 301.505 227.713C302.098 227.751 302.692 227.662 303.248 227.453L302.44 220.813Z" fill="#A24E3F"/>
<path d="M306.978 230.752C306.911 230.753 306.846 230.729 306.795 230.686C306.744 230.642 306.71 230.582 306.7 230.515C306.695 230.44 306.718 230.367 306.764 230.308C306.81 230.249 306.877 230.209 306.95 230.195C308.123 230.078 309.252 229.687 310.246 229.054C311.24 228.42 312.071 227.562 312.671 226.548C312.686 226.514 312.708 226.483 312.735 226.457C312.763 226.431 312.795 226.412 312.83 226.399C312.865 226.386 312.902 226.38 312.94 226.382C312.977 226.383 313.014 226.393 313.047 226.409C313.08 226.425 313.11 226.448 313.134 226.476C313.158 226.503 313.177 226.536 313.188 226.571C313.2 226.605 313.205 226.642 313.202 226.679C313.199 226.716 313.189 226.752 313.173 226.785C312.54 227.891 311.651 228.828 310.58 229.519C309.509 230.209 308.288 230.632 307.02 230.752H306.978Z" fill="#263238"/>
<path d="M311.391 214.897C311.258 214.896 311.129 214.846 311.029 214.758C310.515 214.282 309.893 213.936 309.218 213.749C308.542 213.563 307.831 213.541 307.145 213.686C307.074 213.707 306.999 213.714 306.925 213.705C306.852 213.697 306.78 213.674 306.715 213.638C306.65 213.602 306.593 213.553 306.548 213.494C306.502 213.435 306.469 213.368 306.449 213.296C306.428 213.226 306.422 213.152 306.43 213.079C306.439 213.006 306.462 212.936 306.498 212.872C306.535 212.808 306.584 212.752 306.642 212.708C306.701 212.664 306.768 212.632 306.839 212.614C307.702 212.425 308.598 212.443 309.452 212.668C310.307 212.893 311.095 213.319 311.753 213.909C311.806 213.961 311.847 214.022 311.876 214.09C311.904 214.158 311.919 214.232 311.919 214.305C311.919 214.379 311.904 214.452 311.876 214.52C311.847 214.589 311.806 214.65 311.753 214.702C311.661 214.81 311.532 214.879 311.391 214.897Z" fill="#263238"/>
<path d="M293.921 215.217C293.838 215.237 293.753 215.237 293.67 215.217C293.542 215.146 293.445 215.029 293.401 214.889C293.357 214.749 293.369 214.597 293.434 214.466C293.815 213.67 294.379 212.976 295.081 212.441C295.783 211.906 296.602 211.545 297.47 211.389C297.616 211.373 297.762 211.416 297.877 211.507C297.991 211.598 298.065 211.731 298.083 211.876C298.093 211.95 298.088 212.024 298.068 212.095C298.049 212.167 298.016 212.233 297.97 212.292C297.925 212.35 297.869 212.399 297.804 212.435C297.74 212.471 297.669 212.494 297.596 212.503C296.909 212.631 296.262 212.921 295.71 213.35C295.158 213.778 294.716 214.333 294.422 214.967C294.368 215.049 294.293 215.116 294.205 215.16C294.117 215.204 294.019 215.223 293.921 215.217Z" fill="#263238"/>
<path d="M363.312 255.697L363.841 256.365L364.495 257.158C364.941 257.687 365.4 258.23 365.887 258.759C366.848 259.831 367.85 260.889 368.922 261.891C371.02 263.949 373.237 265.882 375.562 267.682C377.922 269.469 380.37 271.137 382.897 272.679C384.164 273.445 385.459 274.168 386.767 274.878L388.758 275.894L389.718 276.382C389.955 276.493 390.191 276.604 390.414 276.688C391.125 276.984 391.886 277.14 392.655 277.147C393.363 277.107 394.042 276.855 394.604 276.423C396.47 274.877 397.943 272.912 398.905 270.688C400.198 268.007 401.237 265.211 402.01 262.336C402.87 259.405 403.581 256.431 404.139 253.428L410.083 253.803C410.269 260.656 409.29 267.49 407.188 274.015C406.592 275.794 405.823 277.51 404.891 279.138C403.857 280.993 402.521 282.663 400.938 284.079C399.052 285.754 396.748 286.884 394.27 287.351C391.861 287.771 389.387 287.599 387.059 286.85C386.517 286.696 386.015 286.502 385.5 286.307L384.289 285.806L381.923 284.817C380.35 284.107 378.805 283.425 377.288 282.562C374.242 280.955 371.308 279.146 368.504 277.147C365.697 275.123 363.023 272.919 360.5 270.549C359.247 269.352 358.036 268.085 356.853 266.777C356.268 266.109 355.684 265.385 355.127 264.745L354.278 263.645C353.986 263.255 353.763 262.949 353.373 262.392L363.312 255.697Z" fill="#B97964"/>
<path d="M373.181 263.032L364.467 277.662L360.222 273.653L368.267 258.996L373.181 263.032Z" fill="#263238"/>
<path d="M354.125 244.825C359.136 244.742 371.303 259.107 371.303 259.107L360.723 277.523C360.723 277.523 347.249 265.649 347.263 259.149C347.277 252.37 348.418 244.992 354.125 244.825Z" fill="#92140C"/>
<path opacity="0.3" d="M354.125 244.825C359.136 244.742 371.303 259.107 371.303 259.107L360.723 277.523C360.723 277.523 347.249 265.649 347.263 259.149C347.277 252.37 348.418 244.992 354.125 244.825Z" fill="black"/>
<path d="M475.814 523.211C475.426 523.196 475.055 523.054 474.756 522.807C474.616 522.714 474.504 522.584 474.433 522.432C474.362 522.28 474.334 522.111 474.352 521.944C474.477 520.441 478.25 518.464 478.667 518.242C478.713 518.212 478.766 518.196 478.82 518.196C478.875 518.196 478.928 518.212 478.973 518.242C479.015 518.276 479.047 518.322 479.064 518.374C479.081 518.426 479.083 518.481 479.071 518.534C478.639 520.037 477.679 522.626 476.287 523.086C476.138 523.155 475.978 523.198 475.814 523.211ZM478.333 519.035C476.858 519.87 474.978 521.179 474.909 521.958C474.898 522.034 474.911 522.11 474.946 522.178C474.981 522.245 475.036 522.3 475.104 522.334C475.234 522.461 475.396 522.549 475.572 522.591C475.749 522.633 475.933 522.626 476.106 522.571C476.872 522.348 477.679 521.04 478.333 519.063V519.035Z" fill="#92140C"/>
<path d="M475.299 519.564C474.687 519.616 474.075 519.464 473.559 519.133C473.391 518.988 473.278 518.791 473.237 518.573C473.197 518.355 473.231 518.131 473.336 517.935C473.411 517.734 473.531 517.552 473.688 517.404C473.845 517.257 474.034 517.148 474.241 517.086C475.855 516.543 478.806 518.172 478.932 518.242C478.977 518.266 479.015 518.302 479.042 518.346C479.069 518.39 479.084 518.441 479.085 518.492C479.083 518.54 479.069 518.587 479.045 518.628C479.02 518.669 478.986 518.704 478.946 518.729C477.809 519.279 476.562 519.565 475.299 519.564ZM475.006 517.532C474.808 517.529 474.611 517.557 474.422 517.615C474.293 517.655 474.175 517.724 474.076 517.815C473.978 517.907 473.901 518.019 473.851 518.144C473.712 518.478 473.851 518.618 473.851 518.715C474.477 519.244 476.788 519.021 478.11 518.478C477.146 517.966 476.092 517.645 475.006 517.532Z" fill="#92140C"/>
<path d="M346.413 567.101C345.439 567.183 344.465 566.953 343.629 566.447C343.41 566.286 343.232 566.076 343.109 565.835C342.986 565.593 342.921 565.326 342.919 565.055C342.903 564.907 342.926 564.759 342.988 564.624C343.049 564.489 343.145 564.373 343.267 564.289C344.534 563.426 349.294 565.597 350.227 566.029C350.28 566.055 350.324 566.097 350.352 566.15C350.379 566.203 350.389 566.263 350.38 566.321C350.375 566.378 350.353 566.432 350.315 566.474C350.277 566.517 350.227 566.546 350.171 566.558C348.94 566.865 347.681 567.047 346.413 567.101ZM344.186 564.693C343.998 564.676 343.809 564.714 343.643 564.804C343.601 564.833 343.568 564.873 343.548 564.92C343.529 564.967 343.523 565.018 343.532 565.068C343.536 565.251 343.583 565.43 343.667 565.591C343.752 565.753 343.872 565.893 344.019 566.001C345.118 566.836 347.735 566.516 349.267 566.238C347.66 565.47 345.948 564.949 344.186 564.693Z" fill="#92140C"/>
<path d="M350.172 566.614H350.06C348.488 565.973 345.314 563.426 345.495 562.104C345.495 561.811 345.717 561.449 346.441 561.366C349.225 561.004 350.395 566.085 350.436 566.294C350.448 566.343 350.446 566.395 350.432 566.444C350.417 566.493 350.39 566.537 350.353 566.572C350.298 566.604 350.235 566.619 350.172 566.614ZM346.692 561.895H346.511C346.219 561.895 346.052 562.02 346.038 562.159C345.94 562.911 348.126 564.943 349.74 565.806C349.392 564.609 348.362 561.895 346.692 561.895Z" fill="#92140C"/>
<path d="M309.024 216.679L306.686 216.303C306.686 216.303 308.064 217.932 309.024 216.679Z" fill="#263238"/>
<path d="M221.941 119.406C219.477 122.496 205.905 126.129 195.117 125.127C191.4 149.515 204.388 177.591 204.388 177.591C204.388 177.591 232.576 174.237 233.272 162.627C233.968 151.018 221.941 119.406 221.941 119.406Z" fill="#92140C"/>
<path opacity="0.4" d="M221.941 119.406C219.477 122.496 205.905 126.129 195.117 125.127C191.4 149.515 204.388 177.591 204.388 177.591C204.388 177.591 232.576 174.237 233.272 162.627C233.968 151.018 221.941 119.406 221.941 119.406Z" fill="#FAFAFA"/>
<path d="M435.32 100.85C437.84 104.4 450.632 107.922 460.529 106.084C465.833 134.954 456.005 169.253 456.005 169.253C456.005 169.253 429.738 166.915 428.165 153.12C426.592 139.325 435.32 100.85 435.32 100.85Z" fill="#92140C"/>
<path opacity="0.4" d="M435.32 100.85C437.84 104.4 450.632 107.922 460.529 106.084C465.833 134.954 456.005 169.253 456.005 169.253C456.005 169.253 429.738 166.915 428.165 153.12C426.592 139.325 435.32 100.85 435.32 100.85Z" fill="#FAFAFA"/>
<path d="M250.56 350.882C250.36 350.911 250.156 350.9 249.96 350.85C249.763 350.8 249.579 350.712 249.417 350.59C249.255 350.469 249.119 350.316 249.017 350.141C248.914 349.967 248.848 349.774 248.82 349.573L215.76 115.063C215.733 114.856 215.748 114.645 215.804 114.444C215.859 114.243 215.955 114.055 216.085 113.891C216.215 113.728 216.376 113.592 216.56 113.492C216.743 113.392 216.944 113.329 217.152 113.309C217.353 113.281 217.558 113.294 217.754 113.345C217.95 113.397 218.135 113.487 218.296 113.61C218.458 113.732 218.594 113.886 218.696 114.061C218.798 114.236 218.865 114.43 218.892 114.631L251.952 349.128C251.979 349.335 251.965 349.545 251.909 349.746C251.853 349.948 251.757 350.136 251.628 350.299C251.498 350.463 251.336 350.599 251.153 350.699C250.97 350.799 250.768 350.861 250.56 350.882Z" fill="#92140C"/>
<path opacity="0.2" d="M250.56 350.882C250.36 350.911 250.156 350.9 249.96 350.85C249.763 350.8 249.579 350.712 249.417 350.59C249.255 350.469 249.119 350.316 249.017 350.141C248.914 349.967 248.848 349.774 248.82 349.573L215.76 115.063C215.733 114.856 215.748 114.645 215.804 114.444C215.859 114.243 215.955 114.055 216.085 113.891C216.215 113.728 216.376 113.592 216.56 113.492C216.743 113.392 216.944 113.329 217.152 113.309C217.353 113.281 217.558 113.294 217.754 113.345C217.95 113.397 218.135 113.487 218.296 113.61C218.458 113.732 218.594 113.886 218.696 114.061C218.798 114.236 218.865 114.43 218.892 114.631L251.952 349.128C251.979 349.335 251.965 349.545 251.909 349.746C251.853 349.948 251.757 350.136 251.628 350.299C251.498 350.463 251.336 350.599 251.153 350.699C250.97 350.799 250.768 350.861 250.56 350.882Z" fill="black"/>
<path d="M408.093 333.454C408.3 333.481 408.51 333.466 408.711 333.41C408.913 333.354 409.101 333.259 409.264 333.129C409.428 332.999 409.564 332.838 409.664 332.654C409.764 332.471 409.826 332.27 409.847 332.062L442.976 97.5653C443.006 97.3642 442.995 97.1592 442.945 96.9622C442.896 96.7651 442.807 96.5798 442.686 96.4168C442.564 96.2539 442.412 96.1166 442.237 96.0127C442.062 95.9088 441.869 95.8404 441.668 95.8114C441.461 95.7843 441.25 95.7991 441.049 95.8548C440.848 95.9106 440.66 96.0062 440.496 96.1361C440.332 96.2659 440.197 96.4273 440.097 96.6107C439.996 96.794 439.934 96.9956 439.914 97.2034L406.784 331.7C406.728 332.105 406.834 332.517 407.079 332.845C407.324 333.173 407.688 333.392 408.093 333.454Z" fill="#92140C"/>
<path opacity="0.2" d="M408.093 333.454C408.3 333.481 408.51 333.466 408.711 333.41C408.913 333.354 409.101 333.259 409.264 333.129C409.428 332.999 409.564 332.838 409.664 332.654C409.764 332.471 409.826 332.27 409.847 332.062L442.976 97.5653C443.006 97.3642 442.995 97.1592 442.945 96.9622C442.896 96.7651 442.807 96.5798 442.686 96.4168C442.564 96.2539 442.412 96.1166 442.237 96.0127C442.062 95.9088 441.869 95.8404 441.668 95.8114C441.461 95.7843 441.25 95.7991 441.049 95.8548C440.848 95.9106 440.66 96.0062 440.496 96.1361C440.332 96.2659 440.197 96.4273 440.097 96.6107C439.996 96.794 439.934 96.9956 439.914 97.2034L406.784 331.7C406.728 332.105 406.834 332.517 407.079 332.845C407.324 333.173 407.688 333.392 408.093 333.454Z" fill="black"/>
<path d="M214.438 120.018L220.702 166.066C220.74 166.357 220.841 166.636 220.998 166.884C221.154 167.133 221.363 167.344 221.609 167.504C221.855 167.664 222.133 167.769 222.423 167.811C222.713 167.854 223.01 167.833 223.291 167.75C237.295 163.741 315.163 143.752 434.778 156.475C435.286 156.533 435.797 156.398 436.21 156.096C436.623 155.794 436.907 155.348 437.005 154.846C439.26 143.181 443.144 109.954 444.132 101.449C444.191 100.913 444.038 100.375 443.704 99.9506C443.371 99.5264 442.885 99.2497 442.35 99.1801C426.286 97.1477 316.639 84.9956 215.844 117.791C215.388 117.942 214.998 118.247 214.742 118.653C214.486 119.059 214.378 119.542 214.438 120.018Z" fill="#92140C"/>
<path opacity="0.6" d="M214.438 120.018L220.702 166.066C220.74 166.357 220.841 166.636 220.998 166.884C221.154 167.133 221.363 167.344 221.609 167.504C221.855 167.664 222.133 167.769 222.423 167.811C222.713 167.854 223.01 167.833 223.291 167.75C237.295 163.741 315.163 143.752 434.778 156.475C435.286 156.533 435.797 156.398 436.21 156.096C436.623 155.794 436.907 155.348 437.005 154.846C439.26 143.181 443.144 109.954 444.132 101.449C444.191 100.913 444.038 100.375 443.704 99.9506C443.371 99.5264 442.885 99.2497 442.35 99.1801C426.286 97.1477 316.639 84.9956 215.844 117.791C215.388 117.942 214.998 118.247 214.742 118.653C214.486 119.059 214.378 119.542 214.438 120.018Z" fill="#FAFAFA"/>
<path d="M234.524 128.064L241.123 126.672L245.786 138.796L246.969 125.489L253.553 124.097L259.33 135.984L259.413 122.914L265.984 121.522L265.121 145.046L258.314 146.438L251.785 133.047L250.393 148.025L243.586 149.417L234.524 128.064Z" fill="#FAFAFA"/>
<path d="M269.213 121.271L287.991 118.487L288.603 123.331L276.855 125.057L277.314 128.676L288.214 127.076L288.798 131.711L277.899 133.312L278.4 137.808L290.497 136.04L291.151 141.191L272.025 143.975L269.213 121.271Z" fill="#FAFAFA"/>
<path d="M292.766 117.944L299.809 117.179L301.313 134.398L312.295 133.214L312.797 138.782L294.701 140.731L292.766 117.944Z" fill="#FAFAFA"/>
<path d="M329.988 128.148L336.266 129.54C336.006 131.148 335.413 132.684 334.526 134.05C333.711 135.279 332.601 136.285 331.296 136.973C329.733 137.726 328.033 138.152 326.299 138.226C324.23 138.446 322.137 138.223 320.16 137.571C318.449 136.832 316.996 135.601 315.984 134.036C314.652 131.988 313.932 129.602 313.91 127.159C313.545 123.954 314.466 120.735 316.472 118.209C317.546 117.068 318.84 116.156 320.275 115.527C321.71 114.898 323.257 114.565 324.824 114.548C327.186 114.239 329.585 114.677 331.686 115.801C333.531 117.027 334.921 118.827 335.639 120.923L329.473 122.761C329.303 122.225 329.044 121.721 328.707 121.271C328.281 120.765 327.735 120.373 327.12 120.13C326.12 119.721 325.006 119.687 323.983 120.035C322.959 120.383 322.096 121.089 321.552 122.023C320.876 123.453 320.621 125.046 320.815 126.616C320.935 129.15 321.399 130.862 322.207 131.753C322.627 132.197 323.146 132.535 323.722 132.741C324.297 132.947 324.913 133.013 325.52 132.936C326.091 132.929 326.654 132.801 327.172 132.562C327.69 132.322 328.152 131.975 328.526 131.544C329.296 130.556 329.799 129.386 329.988 128.148Z" fill="#FAFAFA"/>
<path d="M338.841 125.489C338.732 123.888 338.941 122.281 339.457 120.761C339.973 119.242 340.786 117.839 341.847 116.636C342.986 115.515 344.337 114.635 345.822 114.047C347.307 113.459 348.895 113.174 350.492 113.211C352.077 113.054 353.677 113.219 355.197 113.697C356.716 114.176 358.122 114.958 359.331 115.995C360.416 117.123 361.258 118.46 361.806 119.925C362.355 121.39 362.597 122.952 362.518 124.514C362.639 126.801 362.209 129.082 361.266 131.168C360.414 132.905 359.074 134.357 357.41 135.344C355.474 136.425 353.293 136.991 351.076 136.987C348.886 137.141 346.691 136.788 344.659 135.957C342.911 135.153 341.453 133.831 340.483 132.17C339.342 130.133 338.774 127.824 338.841 125.489ZM345.898 125.294C345.775 127.057 346.267 128.808 347.29 130.25C347.724 130.741 348.268 131.123 348.878 131.364C349.487 131.606 350.145 131.701 350.798 131.642C351.465 131.657 352.128 131.52 352.735 131.243C353.343 130.966 353.88 130.555 354.306 130.041C355.277 128.422 355.692 126.53 355.489 124.654C355.608 122.973 355.113 121.306 354.097 119.963C353.652 119.473 353.1 119.093 352.485 118.852C351.869 118.61 351.206 118.514 350.547 118.571C349.893 118.569 349.247 118.714 348.656 118.996C348.066 119.278 347.547 119.689 347.137 120.199C346.157 121.702 345.72 123.495 345.898 125.28V125.294Z" fill="#FAFAFA"/>
<path d="M366.806 113.156H376.091L379.292 127.173L383.232 113.253L392.516 113.337L391.89 136.305H386.099L386.572 118.779L381.645 136.263H376.411L372.444 118.696L371.97 136.221H366.18L366.806 113.156Z" fill="#FAFAFA"/>
<path d="M397.611 113.559L416.5 114.409L416.208 119.308L404.376 118.779L404.139 122.496L415.108 122.983L414.816 127.591L403.847 127.104L403.569 131.642L415.735 132.17L415.401 137.377L396.163 136.514L397.611 113.559Z" fill="#FAFAFA"/>
</svg>
