<svg width="30" height="30" viewBox="0 0 30 30" fill="none" xmlns="http://www.w3.org/2000/svg">
<path d="M15.6968 1.20093C15.6968 1.20093 14.9374 1.58847 14.1788 2.15917C13.7995 2.44452 13.4156 2.77558 13.1121 3.15685C12.8086 3.53806 12.5612 3.99075 12.5988 4.52009C12.6406 5.10837 13.0394 5.54647 13.4648 5.80915C13.8901 6.07177 14.3731 6.23067 14.828 6.38741C15.2829 6.54415 15.7098 6.69872 15.9806 6.86601C16.2515 7.03323 16.3353 7.14157 16.3488 7.33259C16.3504 7.35427 16.3243 7.47005 16.1957 7.63159C16.0671 7.79313 15.8602 7.97905 15.6437 8.14194C15.2108 8.46755 14.7593 8.70093 14.7593 8.70093L15.2403 9.63937C15.2403 9.63937 15.7575 9.37605 16.2778 8.98464C16.5379 8.78894 16.8037 8.56118 17.0208 8.28855C17.2379 8.01579 17.4305 7.67683 17.4008 7.25771C17.3589 6.66942 16.9602 6.23132 16.5348 5.96864C16.1094 5.70597 15.6264 5.54712 15.1716 5.39038C14.7167 5.23364 14.2897 5.07907 14.0189 4.91179C13.748 4.7445 13.6643 4.63622 13.6508 4.4452C13.6414 4.31325 13.7221 4.0838 13.9371 3.81374C14.1521 3.54362 14.4772 3.25423 14.8128 3.00175C15.4839 2.49685 16.1778 2.13937 16.1778 2.13937L15.6968 1.20093ZM8.19676 4.01343C8.19676 4.01343 7.43738 4.40097 6.67877 4.97167C6.29949 5.25702 5.91559 5.58808 5.61207 5.96935C5.30855 6.35056 5.06117 6.80325 5.09879 7.33259C5.14062 7.92087 5.53941 8.35897 5.9648 8.62165C6.39014 8.88427 6.87313 9.04317 7.32799 9.19991C7.78291 9.35665 8.20983 9.51122 8.48065 9.67851C8.75152 9.84573 8.83525 9.95407 8.84879 10.1451C8.85037 10.1668 8.8243 10.2825 8.69568 10.4441C8.56707 10.6056 8.36018 10.7916 8.14373 10.9544C7.71084 11.2801 7.25926 11.5134 7.25926 11.5134L7.74031 12.4519C7.74031 12.4519 8.25746 12.1885 8.77777 11.7971C9.03793 11.6014 9.30371 11.3737 9.5208 11.101C9.73789 10.8283 9.93055 10.4893 9.90078 10.0702C9.85895 9.48193 9.46016 9.04382 9.03477 8.78114C8.60938 8.51847 8.12645 8.35962 7.67158 8.20288C7.21666 8.04614 6.78975 7.89157 6.51893 7.72429C6.24805 7.557 6.16432 7.44872 6.15078 7.25771C6.14141 7.12575 6.22209 6.8963 6.43707 6.62624C6.65211 6.35612 6.97719 6.06673 7.31281 5.81425C7.98395 5.30935 8.67781 4.95187 8.67781 4.95187L8.19676 4.01343ZM23.1968 4.01343C23.1968 4.01343 22.4374 4.40097 21.6788 4.97167C21.2995 5.25702 20.9156 5.58808 20.6121 5.96935C20.3086 6.35056 20.0612 6.80325 20.0988 7.33259C20.1406 7.92087 20.5394 8.35897 20.9648 8.62165C21.3901 8.88427 21.8731 9.04317 22.328 9.19991C22.7829 9.35665 23.2098 9.51122 23.4806 9.67851C23.7515 9.84573 23.8353 9.95407 23.8488 10.1451C23.8504 10.1668 23.8243 10.2825 23.6957 10.4441C23.5671 10.6056 23.3602 10.7916 23.1437 10.9544C22.7108 11.2801 22.2593 11.5134 22.2593 11.5134L22.7403 12.4519C22.7403 12.4519 23.2575 12.1885 23.7778 11.7971C24.0379 11.6014 24.3037 11.3737 24.5208 11.101C24.7379 10.8283 24.9305 10.4893 24.9008 10.0702C24.8589 9.48193 24.4602 9.04382 24.0348 8.78114C23.6094 8.51847 23.1264 8.35962 22.6716 8.20288C22.2167 8.04614 21.7897 7.89157 21.5189 7.72429C21.248 7.557 21.1643 7.44872 21.1508 7.25771C21.1414 7.12575 21.2221 6.8963 21.4371 6.62624C21.6521 6.35612 21.9772 6.06673 22.3128 5.81425C22.9839 5.30935 23.6778 4.95187 23.6778 4.95187L23.1968 4.01343ZM14.9998 10.9864C14.2381 10.9864 13.7229 11.333 13.3292 11.9236C13.1662 12.1681 13.0346 12.4568 12.9357 12.7711C13.599 12.677 14.2875 12.6273 14.9998 12.6273C15.7121 12.6273 16.4005 12.677 17.0639 12.7711C16.965 12.4568 16.8334 12.1681 16.6704 11.9236C16.2767 11.333 15.7615 10.9864 14.9998 10.9864ZM14.9998 13.6817C8.00211 13.6817 3.64713 18.7231 3.36658 23.8773H26.633C26.3524 18.7231 21.9974 13.6817 14.9998 13.6817V13.6817ZM1.31012 24.1489L0.564453 24.8945C1.62617 25.9563 2.81229 25.9864 3.74979 25.9864H26.2498C27.1873 25.9864 28.3733 25.9563 29.4351 24.8945L28.6895 24.1489C27.8762 24.9621 27.1873 24.932 26.2498 24.932H3.74979C2.81229 24.932 2.12334 24.9621 1.31012 24.1489ZM6.60998 27.0411L7.78197 28.7992H22.2176L23.3896 27.0411H6.60998Z" fill="#92140C"/>
</svg>
