<svg width="254" height="267" viewBox="0 0 254 267" fill="none" xmlns="http://www.w3.org/2000/svg">
<path d="M99.6605 117.508V116.091H108.103V117.508H104.7V127H103.059V117.508H99.6605ZM112.101 127.165C111.334 127.165 110.665 126.989 110.093 126.638C109.521 126.286 109.077 125.794 108.761 125.162C108.445 124.53 108.287 123.792 108.287 122.946C108.287 122.098 108.445 121.355 108.761 120.72C109.077 120.084 109.521 119.591 110.093 119.239C110.665 118.887 111.334 118.712 112.101 118.712C112.868 118.712 113.537 118.887 114.109 119.239C114.681 119.591 115.125 120.084 115.441 120.72C115.757 121.355 115.915 122.098 115.915 122.946C115.915 123.792 115.757 124.53 115.441 125.162C115.125 125.794 114.681 126.286 114.109 126.638C113.537 126.989 112.868 127.165 112.101 127.165ZM112.106 125.828C112.604 125.828 113.015 125.697 113.342 125.434C113.669 125.171 113.91 124.821 114.067 124.385C114.226 123.948 114.306 123.467 114.306 122.941C114.306 122.419 114.226 121.94 114.067 121.503C113.91 121.062 113.669 120.709 113.342 120.443C113.015 120.176 112.604 120.043 112.106 120.043C111.606 120.043 111.19 120.176 110.86 120.443C110.533 120.709 110.29 121.062 110.13 121.503C109.974 121.94 109.896 122.419 109.896 122.941C109.896 123.467 109.974 123.948 110.13 124.385C110.29 124.821 110.533 125.171 110.86 125.434C111.19 125.697 111.606 125.828 112.106 125.828ZM121.512 118.818V120.097H117.043V118.818H121.512ZM118.241 116.858H119.834V124.598C119.834 124.907 119.88 125.139 119.973 125.295C120.065 125.448 120.184 125.553 120.329 125.61C120.479 125.663 120.64 125.69 120.814 125.69C120.942 125.69 121.054 125.681 121.15 125.663C121.246 125.645 121.32 125.631 121.373 125.62L121.661 126.936C121.569 126.972 121.437 127.007 121.267 127.043C121.097 127.082 120.883 127.103 120.628 127.107C120.209 127.114 119.818 127.039 119.456 126.883C119.094 126.727 118.801 126.485 118.577 126.158C118.353 125.832 118.241 125.422 118.241 124.928V116.858ZM125.655 127.181C125.136 127.181 124.668 127.085 124.249 126.893C123.83 126.698 123.498 126.416 123.252 126.047C123.011 125.677 122.89 125.224 122.89 124.688C122.89 124.227 122.979 123.847 123.157 123.548C123.334 123.25 123.574 123.014 123.876 122.84C124.178 122.666 124.515 122.534 124.888 122.446C125.261 122.357 125.641 122.289 126.028 122.243C126.518 122.186 126.915 122.14 127.221 122.105C127.526 122.066 127.748 122.004 127.887 121.918C128.025 121.833 128.094 121.695 128.094 121.503V121.466C128.094 121 127.963 120.64 127.7 120.384C127.441 120.129 127.054 120.001 126.539 120.001C126.003 120.001 125.58 120.12 125.271 120.358C124.966 120.592 124.755 120.853 124.637 121.141L123.141 120.8C123.318 120.303 123.577 119.901 123.918 119.596C124.263 119.287 124.659 119.063 125.106 118.925C125.554 118.783 126.024 118.712 126.518 118.712C126.844 118.712 127.191 118.751 127.556 118.829C127.926 118.903 128.27 119.042 128.59 119.244C128.913 119.447 129.178 119.736 129.384 120.113C129.589 120.485 129.692 120.97 129.692 121.567V127H128.137V125.881H128.073C127.97 126.087 127.816 126.29 127.61 126.489C127.404 126.687 127.139 126.853 126.816 126.984C126.493 127.115 126.106 127.181 125.655 127.181ZM126.001 125.903C126.441 125.903 126.818 125.816 127.13 125.642C127.446 125.468 127.686 125.24 127.849 124.96C128.016 124.676 128.1 124.372 128.1 124.049V122.994C128.043 123.051 127.933 123.104 127.77 123.154C127.61 123.2 127.427 123.241 127.221 123.277C127.015 123.309 126.814 123.339 126.619 123.367C126.424 123.392 126.26 123.413 126.129 123.431C125.82 123.47 125.538 123.536 125.282 123.628C125.03 123.721 124.827 123.854 124.675 124.028C124.526 124.198 124.451 124.425 124.451 124.71C124.451 125.104 124.597 125.402 124.888 125.604C125.179 125.803 125.55 125.903 126.001 125.903ZM133.407 116.091V127H131.814V116.091H133.407ZM104.188 134.091V145H102.537V135.742H102.473L99.8629 137.447V135.87L102.585 134.091H104.188ZM110.937 145.181C110.096 145.178 109.376 144.956 108.78 144.515C108.183 144.075 107.727 143.434 107.411 142.592C107.095 141.751 106.937 140.737 106.937 139.551C106.937 138.368 107.095 137.358 107.411 136.52C107.73 135.682 108.189 135.043 108.785 134.602C109.385 134.162 110.103 133.942 110.937 133.942C111.772 133.942 112.487 134.164 113.084 134.608C113.68 135.048 114.137 135.687 114.453 136.525C114.772 137.36 114.932 138.368 114.932 139.551C114.932 140.74 114.774 141.756 114.458 142.598C114.142 143.436 113.686 144.077 113.089 144.521C112.493 144.961 111.775 145.181 110.937 145.181ZM110.937 143.759C111.676 143.759 112.253 143.398 112.668 142.678C113.087 141.957 113.297 140.914 113.297 139.551C113.297 138.645 113.201 137.88 113.009 137.255C112.821 136.626 112.549 136.151 112.194 135.827C111.843 135.501 111.424 135.337 110.937 135.337C110.202 135.337 109.625 135.7 109.206 136.424C108.787 137.148 108.576 138.191 108.572 139.551C108.572 140.46 108.666 141.229 108.854 141.857C109.046 142.482 109.318 142.956 109.669 143.279C110.021 143.599 110.444 143.759 110.937 143.759ZM120.62 145.181C119.778 145.178 119.059 144.956 118.462 144.515C117.866 144.075 117.41 143.434 117.093 142.592C116.777 141.751 116.619 140.737 116.619 139.551C116.619 138.368 116.777 137.358 117.093 136.52C117.413 135.682 117.871 135.043 118.468 134.602C119.068 134.162 119.785 133.942 120.62 133.942C121.454 133.942 122.17 134.164 122.766 134.608C123.363 135.048 123.819 135.687 124.135 136.525C124.455 137.36 124.615 138.368 124.615 139.551C124.615 140.74 124.457 141.756 124.141 142.598C123.825 143.436 123.368 144.077 122.772 144.521C122.175 144.961 121.458 145.181 120.62 145.181ZM120.62 143.759C121.358 143.759 121.935 143.398 122.351 142.678C122.77 141.957 122.979 140.914 122.979 139.551C122.979 138.645 122.884 137.88 122.692 137.255C122.504 136.626 122.232 136.151 121.877 135.827C121.525 135.501 121.106 135.337 120.62 135.337C119.885 135.337 119.308 135.7 118.889 136.424C118.47 137.148 118.258 138.191 118.255 139.551C118.255 140.46 118.349 141.229 118.537 141.857C118.729 142.482 119 142.956 119.352 143.279C119.704 143.599 120.126 143.759 120.62 143.759ZM132.199 142.955V142.379C132.199 141.967 132.284 141.591 132.454 141.25C132.628 140.906 132.881 140.63 133.211 140.424C133.545 140.215 133.948 140.11 134.42 140.11C134.903 140.11 135.308 140.213 135.634 140.419C135.961 140.625 136.208 140.9 136.375 141.245C136.545 141.589 136.631 141.967 136.631 142.379V142.955C136.631 143.366 136.545 143.745 136.375 144.089C136.204 144.43 135.954 144.705 135.624 144.915C135.297 145.121 134.896 145.224 134.42 145.224C133.941 145.224 133.536 145.121 133.205 144.915C132.875 144.705 132.625 144.43 132.454 144.089C132.284 143.745 132.199 143.366 132.199 142.955ZM133.44 142.379V142.955C133.44 143.26 133.513 143.537 133.658 143.786C133.804 144.034 134.058 144.158 134.42 144.158C134.779 144.158 135.029 144.034 135.171 143.786C135.313 143.537 135.384 143.26 135.384 142.955V142.379C135.384 142.074 135.315 141.797 135.176 141.548C135.041 141.3 134.789 141.175 134.42 141.175C134.065 141.175 133.813 141.3 133.664 141.548C133.514 141.797 133.44 142.074 133.44 142.379ZM126.712 136.712V136.136C126.712 135.724 126.797 135.346 126.968 135.002C127.142 134.657 127.394 134.382 127.724 134.176C128.058 133.97 128.461 133.867 128.933 133.867C129.416 133.867 129.821 133.97 130.148 134.176C130.475 134.382 130.721 134.657 130.888 135.002C131.055 135.346 131.139 135.724 131.139 136.136V136.712C131.139 137.124 131.053 137.502 130.883 137.846C130.716 138.187 130.468 138.462 130.137 138.672C129.811 138.878 129.409 138.981 128.933 138.981C128.45 138.981 128.044 138.878 127.714 138.672C127.387 138.462 127.138 138.187 126.968 137.846C126.797 137.502 126.712 137.124 126.712 136.712ZM127.959 136.136V136.712C127.959 137.017 128.03 137.294 128.172 137.543C128.317 137.791 128.571 137.915 128.933 137.915C129.289 137.915 129.537 137.791 129.679 137.543C129.825 137.294 129.898 137.017 129.898 136.712V136.136C129.898 135.831 129.828 135.554 129.69 135.305C129.551 135.057 129.299 134.933 128.933 134.933C128.578 134.933 128.326 135.057 128.177 135.305C128.031 135.554 127.959 135.831 127.959 136.136ZM127.218 145L134.718 134.091H135.991L128.491 145H127.218Z" fill="#92140C"/>
<circle cx="120.259" cy="133.656" r="92.3843" stroke="#FFF8F0" stroke-width="15"/>
<path d="M77.826 214.618C61.4356 206.24 47.8628 193.282 38.8177 177.397C29.7734 161.514 25.6659 143.425 26.9885 125.423C28.3109 107.423 35.0034 90.3021 46.2168 76.2178C57.4308 62.1328 72.6761 51.7008 90.0409 46.2579" stroke="#92140C" stroke-width="15" stroke-linecap="round" stroke-linejoin="round"/>
<circle cx="118.301" cy="133.205" r="70.2309" stroke="#FFF8F0" stroke-width="15"/>
<path d="M86.9852 195.266C74.4792 188.997 64.058 179.208 57.0406 167.146C50.0238 155.085 46.7329 141.307 47.5588 127.561C48.3846 113.818 53.2886 100.716 61.6379 89.9021C69.9871 79.0882 81.4207 71.0295 94.5063 66.7545" stroke="#FFCF99" stroke-width="15" stroke-linecap="round" stroke-linejoin="round"/>
<circle cx="119.642" cy="132.026" r="48.8175" stroke="#FFF8F0" stroke-width="15"/>
<path d="M81.9244 162.456C77.8196 157.456 74.7241 151.713 72.8128 145.559C70.9016 139.405 70.2133 132.964 70.7799 126.605C71.3464 120.247 73.1565 114.096 76.0996 108.501C79.0425 102.905 83.0627 97.9711 87.9293 93.9757" stroke="#111D4A" stroke-width="15" stroke-linecap="round" stroke-linejoin="round"/>
</svg>
