<svg width="67" height="66" viewBox="0 0 67 66" fill="none" xmlns="http://www.w3.org/2000/svg">
<circle cx="33.5" cy="33" r="33" fill="#1E1E24"/>
<path d="M33 24.25C31.6125 24.25 30.5 25.3625 30.5 26.75C30.5 28.1375 31.6125 29.25 33 29.25C34.3875 29.25 35.5 28.1375 35.5 26.75C35.5 25.3625 34.3875 24.25 33 24.25ZM45.5 19.25V25.5H43V23H23V25.5H20.5V19.25H23V21.75H43V19.25H45.5ZM36.75 32.075V46.75H34.25V40.5H31.75V46.75H29.25V32.075C26.6625 30.7125 24.875 28 24.875 24.875V24.25H27.375V24.875C27.375 28 29.875 30.5 33 30.5C36.125 30.5 38.625 28 38.625 24.875V24.25H41.125V24.875C41.125 28 39.3375 30.7125 36.75 32.075Z" fill="#FFF8F0"/>
</svg>
