<svg width="66" height="66" viewBox="0 0 66 66" fill="none" xmlns="http://www.w3.org/2000/svg">
<circle cx="33" cy="33" r="33" fill="#111D4A"/>
<path d="M32.9997 23.0833C31.4272 23.0833 30.1663 24.3441 30.1663 25.9166C30.1663 27.4891 31.4272 28.75 32.9997 28.75C34.5722 28.75 35.833 27.4891 35.833 25.9166C35.833 24.3441 34.5722 23.0833 32.9997 23.0833ZM47.1663 17.4166V24.5H44.333V21.6666H21.6663V24.5H18.833V17.4166H21.6663V20.25H44.333V17.4166H47.1663ZM37.2497 31.9516V48.5833H34.4163V41.5H31.583V48.5833H28.7497V31.9516C25.8172 30.4075 23.7913 27.3333 23.7913 23.7916V23.0833H26.6247V23.7916C26.6247 27.3333 29.458 30.1666 32.9997 30.1666C36.5413 30.1666 39.3747 27.3333 39.3747 23.7916V23.0833H42.208V23.7916C42.208 27.3333 40.1822 30.4075 37.2497 31.9516Z" fill="#FFF8F0"/>
</svg>
